<svg width="131" height="22" fill="none" xmlns="http://www.w3.org/2000/svg"><path d="m101.992 3.384-2.378 14.799h3.801l2.377-14.799h-3.8Zm11.466 6.028c-1.329-.656-2.143-1.098-2.143-1.77.016-.61.689-1.234 2.19-1.234a6.611 6.611 0 0 1 2.831.548l.345.154.517-3.096a9.594 9.594 0 0 0-3.412-.61c-3.753 0-6.397 1.951-6.413 4.742-.031 2.06 1.892 3.203 3.332 3.889 1.47.703 1.971 1.16 1.971 1.784-.016.96-1.189 1.402-2.284 1.402-1.516 0-2.33-.228-3.567-.762l-.5-.228-.532 3.218c.893.396 2.535.746 4.24.764 3.989 0 6.585-1.922 6.617-4.897.013-1.632-1.001-2.882-3.192-3.904Zm13.485-5.982h-2.941c-.906 0-1.595.26-1.987 1.19l-5.646 13.563h3.989l1.098-2.936h4.463l.57 2.948h3.519L126.943 3.43Zm-4.38 8.853c.077.008 1.531-4.793 1.531-4.793l1.158 4.793h-2.689ZM96.438 3.384 92.714 13.44l-.406-1.983c-.689-2.288-2.847-4.774-5.257-6.009l3.41 12.721h4.022l5.977-14.782h-4.022v-.002Z" fill="#2394BC"/><path d="M91.056 5.294c-.29-1.129-1.215-1.89-2.472-1.906h-5.898l-.061.274c4.6 1.134 8.463 4.624 9.715 7.907l-1.284-6.275Z" fill="#EFC75E"/><path d="M67.623 11.846C67.623 17.433 63.11 22 57.47 22c-5.587 0-10.154-4.567-10.154-10.154s4.513-10.154 10.1-10.154c5.695 0 10.208 4.567 10.208 10.154Z" fill="#FFB600"/><path d="M57.47 1.692c5.587 0 10.153 4.567 10.153 10.154S63.11 22 57.47 22c-5.587 0-10.154-4.567-10.154-10.154" fill="#F7981D"/><path d="M57.47 1.692c5.587 0 10.153 4.567 10.153 10.154S63.11 22 57.47 22" fill="#FF8500"/><path d="M43.824 1.692c-5.534.054-10.047 4.567-10.047 10.154S38.29 22 43.931 22c2.633 0 4.997-1.02 6.823-2.632.376-.323.699-.699 1.02-1.075H49.68a12.4 12.4 0 0 1-.752-1.02h3.6c.214-.323.429-.699.59-1.075h-4.781a6.398 6.398 0 0 1-.43-1.075h5.587c.322-1.02.537-2.095.537-3.223 0-.752-.107-1.45-.215-2.149h-6.232c.054-.376.162-.698.27-1.074h5.586a6.413 6.413 0 0 0-.43-1.075h-4.727c.161-.376.376-.698.59-1.074h3.6a5.11 5.11 0 0 0-.806-1.075H49.68a9.159 9.159 0 0 1 1.02-1.02C48.927 2.766 46.51 1.8 43.877 1.8c0-.108 0-.108-.053-.108Z" fill="#FF5050"/><path d="M33.777 11.846C33.777 17.433 38.29 22 43.931 22c2.633 0 4.997-1.02 6.823-2.632.376-.323.699-.699 1.02-1.075H49.68a12.384 12.384 0 0 1-.752-1.02h3.6c.214-.323.429-.7.59-1.075h-4.781a6.398 6.398 0 0 1-.43-1.075h5.587c.322-1.02.537-2.095.537-3.223 0-.752-.107-1.45-.215-2.149h-6.232c.054-.376.162-.698.27-1.075h5.586a6.413 6.413 0 0 0-.43-1.074h-4.727c.161-.376.376-.698.59-1.074h3.6a5.11 5.11 0 0 0-.806-1.075H49.68a9.159 9.159 0 0 1 1.02-1.02C48.927 2.766 46.51 1.8 43.877 1.8h-.053" fill="#E52836"/><path d="M43.932 22c2.632 0 4.996-1.02 6.823-2.632.376-.323.698-.699 1.02-1.075H49.68a12.382 12.382 0 0 1-.752-1.02h3.6c.214-.323.43-.7.59-1.075h-4.781a6.415 6.415 0 0 1-.43-1.075h5.588c.322-1.02.537-2.095.537-3.223 0-.752-.108-1.45-.215-2.149h-6.232c.054-.376.161-.698.268-1.075h5.588a6.397 6.397 0 0 0-.43-1.074h-4.728c.161-.376.376-.698.591-1.074h3.6a5.108 5.108 0 0 0-.806-1.075H49.68a9.16 9.16 0 0 1 1.02-1.02C48.929 2.766 46.51 1.8 43.879 1.8h-.054" fill="#CB2026"/><path d="m47.53 14.424.16-.913c-.053 0-.16.053-.268.053-.376 0-.43-.214-.376-.322l.322-1.88h.591l.162-1.021h-.538l.108-.645h-1.075s-.644 3.546-.644 3.976c0 .645.376.913.86.913.322 0 .59-.107.698-.161ZM47.91 12.705c0 1.504 1.02 1.88 1.88 1.88.805 0 1.128-.161 1.128-.161l.215-1.02s-.591.268-1.129.268c-1.181 0-.967-.86-.967-.86h2.203s.161-.698.161-.967c0-.698-.376-1.558-1.558-1.558-1.128-.107-1.934 1.075-1.934 2.418Zm1.88-1.558c.59 0 .483.698.483.752h-1.182c0-.054.108-.752.698-.752ZM56.618 14.424l.215-1.182s-.537.269-.913.269c-.753 0-1.075-.591-1.075-1.236 0-1.29.645-1.988 1.397-1.988.537 0 .967.323.967.323l.161-1.128s-.645-.27-1.236-.27c-1.235 0-2.47 1.075-2.47 3.117 0 1.343.644 2.256 1.933 2.256.43 0 1.02-.16 1.02-.16ZM41.623 10.18c-.753 0-1.29.215-1.29.215l-.161.913s.484-.215 1.182-.215c.376 0 .698.054.698.376 0 .215-.053.269-.053.269h-.484c-.913 0-1.934.376-1.934 1.611 0 .967.645 1.182 1.02 1.182.753 0 1.075-.483 1.129-.483l-.054.43h.967l.43-2.955c0-1.29-1.074-1.343-1.45-1.343Zm.215 2.417c0 .161-.108 1.021-.753 1.021-.322 0-.43-.269-.43-.43 0-.268.162-.645.968-.645.16.054.215.054.215.054ZM44.094 14.531c.269 0 1.612.054 1.612-1.397 0-1.343-1.29-1.074-1.29-1.611 0-.269.215-.376.591-.376.162 0 .753.053.753.053l.16-.967s-.375-.107-1.02-.107c-.806 0-1.612.322-1.612 1.397 0 1.236 1.343 1.128 1.343 1.611 0 .323-.376.377-.644.377-.484 0-.967-.162-.967-.162l-.162.967c.054.108.323.215 1.236.215ZM65.534 9.32l-.215 1.45s-.43-.536-1.02-.536c-.968 0-1.827 1.182-1.827 2.578 0 .86.43 1.773 1.343 1.773.645 0 1.02-.43 1.02-.43l-.053.377h1.074l.806-5.158-1.128-.054Zm-.484 2.848c0 .59-.268 1.343-.86 1.343-.375 0-.59-.323-.59-.86 0-.86.376-1.397.86-1.397.376 0 .59.269.59.914ZM35.77 14.478l.644-3.868.108 3.868h.752l1.397-3.868-.591 3.868h1.128l.86-5.158h-1.773l-1.075 3.17-.053-3.17h-1.558l-.86 5.158h1.02ZM52.424 14.478c.322-1.773.376-3.224 1.128-2.955.108-.699.269-.967.376-1.236h-.214c-.484 0-.86.645-.86.645l.107-.591h-1.02l-.699 4.19h1.182v-.053ZM59.088 10.18c-.752 0-1.29.215-1.29.215l-.16.913s.483-.215 1.181-.215c.376 0 .699.054.699.376 0 .215-.054.269-.054.269h-.483c-.914 0-1.935.376-1.935 1.611 0 .967.645 1.182 1.021 1.182.752 0 1.075-.483 1.128-.483l-.053.43h.967l.43-2.955c.053-1.29-1.075-1.343-1.451-1.343Zm.268 2.417c0 .161-.107 1.021-.752 1.021-.322 0-.43-.269-.43-.43 0-.268.162-.645.968-.645.16.054.16.054.214.054ZM61.448 14.478c.322-1.773.376-3.224 1.128-2.955.107-.699.268-.967.376-1.236h-.215c-.484 0-.86.645-.86.645l.108-.591h-1.021l-.698 4.19h1.182v-.053Z" fill="#fff"/><path d="M45.866 13.672c0 .645.376.913.86.913.376 0 .698-.107.806-.161l.16-.913c-.053 0-.16.053-.268.053-.376 0-.43-.214-.376-.322l.322-1.88h.592l.16-1.021h-.537l.108-.645M48.444 12.705c0 1.504.484 1.88 1.343 1.88.806 0 1.129-.161 1.129-.161l.215-1.02s-.591.268-1.129.268c-1.182 0-.967-.86-.967-.86h2.203s.161-.698.161-.967c0-.698-.376-1.558-1.558-1.558-1.128-.107-1.397 1.075-1.397 2.418Zm1.343-1.558c.591 0 .699.698.699.752h-1.397c0-.054.108-.752.698-.752ZM56.616 14.424l.215-1.182s-.538.269-.914.269c-.752 0-1.074-.591-1.074-1.236 0-1.29.645-1.988 1.397-1.988.537 0 .967.323.967.323l.161-1.128s-.645-.27-1.236-.27c-1.235 0-1.934 1.075-1.934 3.117 0 1.343.108 2.256 1.397 2.256.43 0 1.02-.16 1.02-.16ZM40.172 11.362s.484-.215 1.182-.215c.376 0 .698.053.698.376 0 .215-.053.268-.053.268h-.484c-.913 0-1.934.377-1.934 1.612 0 .967.645 1.182 1.02 1.182.753 0 1.075-.484 1.129-.484l-.054.43h.967l.43-2.955c0-1.235-1.074-1.289-1.504-1.289l-1.397 1.075Zm2.203 1.235c0 .161-.645 1.021-1.29 1.021-.322 0-.43-.269-.43-.43 0-.268.162-.645.968-.645.16.054.752.054.752.054ZM42.913 14.424s.322.107 1.236.107c.268 0 1.611.054 1.611-1.397 0-1.343-1.289-1.074-1.289-1.611 0-.269.215-.376.591-.376.161 0 .752.053.752.053l.161-.967s-.376-.107-1.02-.107c-.806 0-1.075.322-1.075 1.397 0 1.236.806 1.128.806 1.611 0 .323-.376.377-.645.377M65.317 10.77s-.43-.536-1.021-.536c-.967 0-1.29 1.181-1.29 2.578 0 .86-.107 1.773.806 1.773.645 0 1.021-.43 1.021-.43l-.054.377h1.075l.806-5.158-1.343 1.397Zm-.054 1.398c0 .59-.484 1.343-1.075 1.343-.376 0-.59-.323-.59-.86 0-.86.375-1.397.859-1.397.376 0 .806.269.806.914ZM35.77 14.478l.644-3.868.108 3.868h.752l1.397-3.868-.591 3.868h1.128l.86-5.158h-1.343l-1.505 3.17-.053-3.17h-.591l-1.827 5.158h1.02ZM51.295 14.478h1.128c.322-1.773.376-3.224 1.128-2.955.108-.699.269-.967.376-1.236h-.215c-.483 0-.86.645-.86.645l.108-.591M57.637 11.362s.484-.215 1.182-.215c.376 0 .699.053.699.376 0 .215-.054.268-.054.268h-.483c-.914 0-1.935.377-1.935 1.612 0 .967.645 1.182 1.021 1.182.752 0 1.075-.484 1.128-.484l-.053.43h.967l.43-2.955c0-1.235-1.075-1.289-1.505-1.289l-1.397 1.075Zm2.203 1.235c0 .161-.645 1.021-1.29 1.021-.322 0-.43-.269-.43-.43 0-.268.162-.645.968-.645.215.054.752.054.752.054ZM60.323 14.478h1.128c.323-1.773.377-3.224 1.129-2.955.107-.699.268-.967.376-1.236h-.215c-.484 0-.86.645-.86.645l.108-.591" fill="#DCE5E5"/><path d="M16.67 5.06a.458.458 0 0 0-.687.345c-.017.15-.042.3-.074.458-.898 4.073-2.7 6.054-5.511 6.054H6.273a.458.458 0 0 0-.448.367L4.45 18.729l-.246 1.64A1.375 1.375 0 0 0 5.549 22h2.759a1.369 1.369 0 0 0 1.334-1.044l1.114-4.456h2.392c2.822 0 4.773-2.25 5.492-6.337a4.79 4.79 0 0 0-1.97-5.104Z" fill="#03A9F4"/><path d="M15.805 1.634A4.823 4.823 0 0 0 12.23 0H4.64a2.28 2.28 0 0 0-2.268 1.949L.015 17.67a1.375 1.375 0 0 0 1.362 1.58h3.52a.458.458 0 0 0 .448-.367l1.297-6.05H10.4c3.262 0 5.417-2.28 6.407-6.783.04-.18.07-.361.091-.544a4.733 4.733 0 0 0-1.093-3.872Z" fill="#283593"/></svg>